<?xml version="1.0" encoding="UTF-8"?>
<svg xmlns="http://www.w3.org/2000/svg" id="Layer_1" data-name="Layer 1" viewBox="0 0 162.09 162.16">
  <defs>
    <style>.cls-1{fill:#fcea00;}.cls-1,.cls-2,.cls-3,.cls-4{fill-rule:evenodd;}.cls-2{fill:#ec6303;}.cls-3{fill:#e7420c;}.cls-4{fill:#e6370d;}</style>
  </defs>
  <path class="cls-1" d="M113.45,20.52c1.83-.11,6.86,3.8,8.33,4.83,2.5,1.76,5.74,3.81,6.79,6.67,3.31.32,9.92,12.12,11.5,15.42,1.74,3.65,7.2,17.59,5.88,20.75-1-.47-.81-.86-1.72-1.65l-.14,1.91-1.28-.13c-1.48-8.23-7.95-16.76-12.9-22.8-1-1.26-5.48-4.76-5.75-5.84l-.93.15c-.51,1.37,4.57,5.07,5.27,9.13a15.24,15.24,0,0,1-3.32-2.65c-3.4-3.65-6.57-4.86-10-7.62-2.79-2.23-7.09-5.6-10.6-7-1.42-.58-3.29-.62-4.06-1.54-9.85.23-19.92-.47-29.26,2.8a13.5,13.5,0,0,0-1.61.7,12.92,12.92,0,0,1-1.46.85c-2.51.89-2.69.2-6.27,2.78-1.79,1.29-3.28,2.63-5,4-5,3.93-7,8.58-8.66,9.51,1.35-2.92,2.93-3.91,3.34-6.19a4,4,0,0,0-2,1.38,12.77,12.77,0,0,1-1.65,1.84l-2.46,4.65A10.21,10.21,0,0,0,47.66,52C47.38,53,46.19,53.44,46,55.22c1.31-.11,6.14-3.65,7.34-4.26,9-4.55,16.42-7.11,27.66-7.11A9.1,9.1,0,0,1,77.1,45v.46c4,.33,10.09.08,11.77.3a31.87,31.87,0,0,1,9.64,2.41c4,1.92,4,1.78,7.16,4.9l9.4,8.68a34.9,34.9,0,0,1,2.65,3.38,40.55,40.55,0,0,1,6.94,17.18,37.57,37.57,0,0,1,.67,5.36c-.12,3.14-.65.71-.24,5.58.2-.32,0,.22.22-.47a30.11,30.11,0,0,0,.94-9.51,40.78,40.78,0,0,0-2-9.6c-1.17-4.12-1.89-9.21-4.46-12.93-1.21-1.75-1.55-1.21-2.13-3.68a5.39,5.39,0,0,1,1.8,1.45,8.87,8.87,0,0,0,1.91,1.57c-.32-1.39-1-1.43-1.16-3,2.52,1.69,4.07,4.94,5.24,7.76,1.56,3.8,3,3.74,4.4,8.81a24.89,24.89,0,0,1,1,7.79,34.83,34.83,0,0,1-.71,7.87A27,27,0,0,1,128,95.89l-3.31,5.5c-.5.86-2.62,5-2.1,6.25.3.7-.45.21,1.62.7a10,10,0,0,1-1.61,4.18c-3.21,5.5-1.1,4.61-2.89,6.85-.64.81-1.18,1.44-1.76,2.19s-1.17,1.24-1.82,2.12-1.12,1.47-1.65,2.29c-2.09,3.17-2.91,3.53-6.65,5.41-1,.51-1.69.73-2.76,1.18s-2,.88-2.91,1.26c-1.9.79-3.72,1.4-5.67,2.22-1.25.53-4.83,1.91-5.43,2.66a56.77,56.77,0,0,0,22.15-7.5c1.34-.8,4.82-3.57,6.37-3.61l.6,2.67a39.36,39.36,0,0,0-5.62,4.66c4.77-.83,4.73-5.2,14.17-5.13-1,4.09-6.1,6.62-9.57,8.75-2,1.23-3.42,2.47-5.48,3.55-1.23.65-5.38,2.45-6,3.13,1.47,1.76,1.72,1.6,3.28,1.46,2.26-.83,6.42-3.64,9.9-4.44,2.93-.67,2.91-.47,4.95-2.19.91-.77,2.72-2.71,4-2.85.58-1.31,3.42-4.26,4.4-5.22,2-2,7.78-7.9,9.16-9.86,2.5-3.56,6.94-16.42,8.21-20.79.36-1.26.55-2.43,1-3.66s.26-3,.77-4.12c1.09-2.31,1-6.23,2.23-7.42,4.22,7.89-3.54,32.14-7.2,40.49s-13.82,17.74-21.78,22a6.31,6.31,0,0,0-3,3.28c.26.51-.13.1.43.32,4.39-1.82,13.1-9.69,16.52-13.25.64-.66.82-1.07,1.5-1.75,3.71-3.69,6.3-6,9-11l2.24-4.26c5.2-10.41,10.55-25.54,8.51-37.51-.61-3.6-.79-8.12-1.31-11.91-.14-1-.4-1.84-.47-2.78s0-2.23,0-3.24a14.45,14.45,0,0,0-.9-5.83,88.6,88.6,0,0,0-3.73-9.48,98.11,98.11,0,0,0-4.71-8.74,80.25,80.25,0,0,0-11.7-14.74,53,53,0,0,0-7-6.21c-3.7-2.62-5.15-3.28-9.31-4.17.6,2.53,5,4,6.43,6.12,2.71,3.9,6.45,7.85,9.44,11.9A84.26,84.26,0,0,1,144.7,46a26.67,26.67,0,0,1,2.63,5.73c.69,2.29,1.74,4.35,1.22,7-1.27-.66-2.53-4.6-3.17-6.23-4.53-11.67-10-19-19.49-26.87a55.53,55.53,0,0,0-5.36-3.92c-2.65-1.71-3.44-2-6.94-2.45Z"></path>
  <path class="cls-2" d="M123.93,152.27c-.56-.22-.17.19-.43-.32a6.31,6.31,0,0,1,3-3.28c8-4.31,18.13-13.74,21.78-22s11.42-32.6,7.2-40.49c-1.2,1.19-1.14,5.11-2.23,7.42-.51,1.07-.37,2.92-.77,4.12s-.59,2.4-1,3.66c-1.27,4.37-5.71,17.23-8.21,20.79-1.38,2-7.16,7.88-9.16,9.86-1,1-3.82,3.91-4.4,5.22l1.34,0c-.5,2.06-5.94,6.67-7.55,8.09-7,6.15-5.87,3.26-9.89,5.88-3.24,2.11-7.65,2.86-11.83,3.9-11.71,2.92-32.17,2.45-43.2-.57a20.06,20.06,0,0,1-5.4-2.49c-2-1-3.91-1-6.08-1.78-3.71-1.3-8.05-4.91-9.9-5.63l.39-1.77c-4.42-.15-3.68-2.23-5.45-3.85a10.87,10.87,0,0,0-.92-.71l-.62-.66.47-1.64-4-4.17A66,66,0,0,1,17,117.71c-5.74-11.08-6-11.24-6-25.84,0-5.15-1.07-10.57-.6-15.52.23-2.42.52-4.94.73-7.45.34-4.09.62-2.18,1.49-6.38,1.66-8.09,5.78-15.14,10.31-21.69,2.1-3,4.5-6.85,6.85-9.39,5-5.48,4.83-1.54,9.61-6.38C41,23.32,41,22.79,43.7,21.31c1.6-.87,3.51-1.77,5.32-2.53,2-.84,4-1.4,6-2.15,3.16-1.2,3.11-1.22,6.83-1.12,1.17,0,4.74-1.24,6.5-1.57,2.24-.43,4.49-.75,6.81-1a111.35,111.35,0,0,1,15-1c4.49.08,8.84,1.87,12.73,3.14,6.09,2,3.34.71,8.17,3.89l2.45,1.54.14-1.23c3.5.44,4.29.74,6.94,2.45a55.53,55.53,0,0,1,5.36,3.92c9.51,7.89,15,15.2,19.49,26.87.64,1.63,1.9,5.57,3.17,6.23.52-2.64-.53-4.7-1.22-7A26.67,26.67,0,0,0,144.7,46a84.26,84.26,0,0,0-6.33-10.61c-3-4.05-6.73-8-9.44-11.9-1.48-2.14-5.83-3.59-6.43-6.12-1.21-.31-2.61-1.33-3.9-1.63.64-.87,1.12-.39,2.22-.13a3.26,3.26,0,0,0,1.29.14c.4,0,.22.06.56-.12.83-.43.09-.33.09-.34A32,32,0,0,0,118.84,13a62.36,62.36,0,0,0-18.19-6.85c-1.85-.41-3.31-.73-5.17-1.09l-5.39-.87c1.61-2.2,7.34.57,8.11-2.32A22.65,22.65,0,0,0,93.33.7L84.76,0l-9,.27C68.22,1.12,61.83,1,54.3,3.63a103.45,103.45,0,0,0-16.56,8.25A75.57,75.57,0,0,0,30.56,17l-9.42,9.13c-3.21,4.1-4.77,5.55-8.06,10.49L9.57,42.15A70,70,0,0,0,1.75,62.39c-3,14.27-1.83,24.71,1,38.74,1.65,8.29,6.21,19.29,11.37,25.74a52.09,52.09,0,0,0,5.82,6.46,37.1,37.1,0,0,0,3.23,3c1,.82,2.17,2.13,3.15,3.11,6.94,6.94,12.83,11,21.46,15.64a20.6,20.6,0,0,0,2.08.94c11.34,4.89,21.1,6.1,34.47,6.1,9.71,0,13.21-1.19,22.16-2.66A46,46,0,0,0,123,152.84C123.32,152.6,123.6,152.47,123.93,152.27Z"></path>
  <path class="cls-3" d="M129.71,137.2c-1.28.14-3.09,2.08-4,2.85-2,1.72-2,1.52-4.95,2.19-3.48.8-7.64,3.61-9.9,4.44-.71.93-3.11,2.1-4.5,2.49-2,.55-3.81.59-5.8,1.19a38.74,38.74,0,0,1-12.33,1.54c-21.1-.15-44.17-10.41-56.78-26.64-5.42-7-6.44-9.42-10.22-17.59-1.51-3.27-3.24-6.23-3.77-10.19-.67-5.1.87-8,.86-12.8,0-4.66.3-8.22,1.74-12.09.61-1.63,1.35-3.42,1.88-5.1,2.75-8.84,3.08-5.62,4.59-9.3a45.16,45.16,0,0,1,2.06-4.91c.68-1.23,5.39-7.43,6.27-7.78l.19,2.38c2.3-.57,1.51-1.78,2.65-3.57,1.74-2.75,5.74-8.05,8.11-10.12,1.26,1.76-.65,2.31-1,3a1.82,1.82,0,0,0,.64,2.42c3.21,1.31,6.89-5,11.22-5.46,9.58-.91,1.24-1.34,13.53-3.37,6.14-1,20.45-2.91,27-1.89l3.27,1.27c.77.92,2.64,1,4.06,1.54,3.51,1.44,7.81,4.81,10.6,7,3.43,2.76,6.6,4,10,7.62A15.24,15.24,0,0,0,128.5,49c-.7-4.06-5.78-7.76-5.27-9.13l.93-.15c-1.29-1.92.79-.78-3.82-3.14l-11-5.87c-1-.5-1.54-.7-1.53-1.9,3.71-1.13,7.77,1.3,10.92,2.23,1.88.56,3.46.78,5.35,1.41s2.89,1.89,4.54,2.41c-.16-2.85-.8-.6-.93-3.12l.93.32c-1-2.86-4.29-4.91-6.79-6.67-1.47-1-6.5-4.94-8.33-4.83L111,19c-4.83-3.18-2.08-1.9-8.17-3.89C98.94,13.82,94.59,12,90.1,12a111.35,111.35,0,0,0-15,1c-2.32.28-4.57.6-6.81,1-1.76.33-5.33,1.6-6.5,1.57-3.72-.1-3.67-.08-6.83,1.12-2,.75-4,1.31-6,2.15-1.81.76-3.72,1.66-5.32,2.53-2.72,1.48-2.68,2-4.39,3.75-4.78,4.84-4.58.9-9.61,6.38C27.35,34,25,37.8,22.85,40.83c-4.53,6.55-8.65,13.6-10.31,21.69-.87,4.2-1.15,2.29-1.49,6.38-.21,2.51-.5,5-.73,7.45-.47,5,.56,10.37.6,15.52.09,14.6.31,14.76,6,25.84A66,66,0,0,0,27,131.77l4,4.17-.47,1.64.62.66a10.87,10.87,0,0,1,.92.71c1.77,1.62,1,3.7,5.45,3.85l-.39,1.77c1.85.72,6.19,4.33,9.9,5.63,2.17.76,4.13.74,6.08,1.78a20.06,20.06,0,0,0,5.4,2.49c11,3,31.49,3.49,43.2.57,4.18-1,8.59-1.79,11.83-3.9,4-2.62,2.93.27,9.89-5.88,1.61-1.42,7.05-6,7.55-8.09Z"></path>
  <path class="cls-2" d="M110.86,146.68c-1.56.14-1.81.3-3.28-1.46.67-.68,4.82-2.48,6-3.13,2.06-1.08,3.48-2.32,5.48-3.55,3.47-2.13,8.55-4.66,9.57-8.75-9.44-.07-9.4,4.3-14.17,5.13a39.36,39.36,0,0,1,5.62-4.66l-.6-2.67c-1.55,0-5,2.81-6.37,3.61A56.77,56.77,0,0,1,91,138.7c-.85,0-1.72,0-2.55,0-1,.05-1.27.23-2.54.24l-5.33.23H75a85.68,85.68,0,0,1-10.21-.69,27,27,0,0,1-4-1.57c-.7-.28-1.48-.42-2.09-.69-.77-.34-.85-.78-1.56-1.22-1.11-.7-2.63-1.15-3-2.56l8.78,2.35c1.54.49,7.62,2.29,9.54,1.36-.32-.87-1.78-1.16-2.55-1.39-1-.31-2-.56-3-1a51.86,51.86,0,0,1-5.51-2.59,89.29,89.29,0,0,1-9.18-7.06l-6-5.8c-.81-.81-1.18-1.41-2-2.2-1.89-1.91-2.07-2.91-2.93-5.18-1.85-4.88-2.22-1.94-.37-5.44-3.51-5.24-3.94-14.82-4.8-21.17-.17-1.26,0-2.47-.2-3.74-.77-5.08.23-15.45,2.05-20.26a7.32,7.32,0,0,1,3.42-4.24L39.55,63.8c2.58-1.37,1.67-6.58,5.87-11.37l2.46-4.65a12.77,12.77,0,0,0,1.65-1.84,4,4,0,0,1,2-1.38c-.41,2.28-2,3.27-3.34,6.19,1.68-.93,3.64-5.58,8.66-9.51,1.75-1.37,3.24-2.71,5-4,3.58-2.58,3.76-1.89,6.27-2.78a12.92,12.92,0,0,0,1.46-.85,13.5,13.5,0,0,1,1.61-.7c9.34-3.27,19.41-2.57,29.26-2.8l-3.27-1.27c-6.56-1-20.87.88-27,1.89-12.29,2-3.95,2.46-13.53,3.37-4.33.42-8,6.77-11.22,5.46a1.82,1.82,0,0,1-.64-2.42c.31-.64,2.22-1.19,1-3-2.37,2.07-6.37,7.37-8.11,10.12-1.14,1.79-.35,3-2.65,3.57l-.19-2.38c-.88.35-5.59,6.55-6.27,7.78a45.16,45.16,0,0,0-2.06,4.91c-1.51,3.68-1.84.46-4.59,9.3-.53,1.68-1.27,3.47-1.88,5.1-1.44,3.87-1.75,7.43-1.74,12.09,0,4.85-1.53,7.7-.86,12.8.53,4,2.26,6.92,3.77,10.19,3.78,8.17,4.8,10.61,10.22,17.59,12.61,16.23,35.68,26.49,56.78,26.64a38.74,38.74,0,0,0,12.33-1.54c2-.6,3.77-.64,5.8-1.19C107.75,148.78,110.15,147.61,110.86,146.68Z"></path>
  <path class="cls-4" d="M124.16,39.68c.27,1.08,4.71,4.58,5.75,5.84,5,6,11.42,14.57,12.9,22.8l1.28.13.14-1.91c.91.79.71,1.18,1.72,1.65,1.32-3.16-4.14-17.1-5.88-20.75-1.58-3.3-8.19-15.1-11.5-15.42l-.93-.32c.13,2.52.77.27.93,3.12-1.65-.52-2.67-1.79-4.54-2.41s-3.47-.85-5.35-1.41c-3.15-.93-7.21-3.36-10.92-2.23,0,1.2.57,1.4,1.53,1.9l11,5.87C125,38.9,122.87,37.76,124.16,39.68Z"></path>
</svg>
